<svg xmlns="http://www.w3.org/2000/svg" width="319.741" height="40.205" viewBox="0 0 319.741 40.205">
  <g id="Logo" transform="translate(-66.918 -65.802)">
    <path id="Path_1" data-name="Path 1" d="M298.466,84.132c-1.4,5.548-4.495,7.725-8.989,7.725-6.637,0-9.411-5.022-9.411-13.1,0-8.181,3.582-12.957,9.516-12.957,4.354,0,7.093,2.072,8.5,7.409h0a2.394,2.394,0,0,1-2.707-1.391c-1.264-2.853-3.147-4.157-5.791-4.157-4.459,0-7.339,4.389-7.339,11.1,0,7.164,2.353,11.237,7.234,11.237,3,0,5.1-1.436,6.376-4.478a2.318,2.318,0,0,1,2.613-1.386Z" transform="translate(-132.799)" fill="#3f414c"/>
    <path id="Path_2" data-name="Path 2" d="M347.305,101.041l-.027-.257a9.675,9.675,0,0,1-6.531,2.739c-3.3,0-5.127-1.931-5.127-4.846a5.333,5.333,0,0,1,3.02-4.951,38.878,38.878,0,0,1,8.6-2.528c.281-3.863-1.159-4.952-4.073-4.952-2.318,0-3.827.878-5.232,3.09l-1.545-.913a7.405,7.405,0,0,1,6.777-3.9c4.284,0,6.145,1.861,6.145,5.548v10.57l.281,2.458h0A2.3,2.3,0,0,1,347.305,101.041Zm-.062-8.158c-3.933.807-6.215,1.51-7.725,2.388a3.745,3.745,0,0,0-1.826,3.406,2.927,2.927,0,0,0,3.231,3.125,8.532,8.532,0,0,0,6.321-3.16Z" transform="translate(-167.411 -11.665)" fill="#3f414c"/>
    <path id="Path_3" data-name="Path 3" d="M384.261,109.14V84.946h2.072v2.914c1.65-2.247,3.336-3.336,5.829-3.336,4.354,0,7.093,3.723,7.093,9.305,0,5.935-2.809,9.552-7.409,9.552a6.824,6.824,0,0,1-5.513-2.669v8.427Zm2.072-10.956a6.457,6.457,0,0,0,5.408,3.406c3.582,0,5.443-3.055,5.443-7.761,0-4.67-2.036-7.514-5.372-7.514-1.721,0-3.862,1.089-5.478,3.9Z" transform="translate(-197.716 -11.665)" fill="#3f414c"/>
    <path id="Path_4" data-name="Path 4" d="M433.853,103.8V85.643h2.072V103.8Z" transform="translate(-228.613 -12.362)" fill="#3f414c"/>
    <path id="Path_5" data-name="Path 5" d="M456.137,95.39a1.886,1.886,0,0,1-1.817,1.884c-.2.008-.417.012-.641.012-2.669,0-3.652-1.054-3.652-4.144V80.572h-2.669v-1.72h2.669V74.742H452.1v4.109h4.038v1.72H452.1V93.108c0,1.615.562,2.493,1.931,2.493a9.108,9.108,0,0,0,2.107-.211Z" transform="translate(-237.028 -5.57)" fill="#3f414c"/>
    <path id="Path_6" data-name="Path 6" d="M488.358,101.041l-.027-.257a9.675,9.675,0,0,1-6.532,2.739c-3.3,0-5.126-1.931-5.126-4.846a5.332,5.332,0,0,1,3.02-4.951,38.877,38.877,0,0,1,8.6-2.528c.28-3.863-1.159-4.952-4.073-4.952-2.318,0-3.828.878-5.232,3.09l-1.545-.913a7.405,7.405,0,0,1,6.777-3.9c4.284,0,6.145,1.861,6.145,5.548v10.57l.281,2.458h0A2.3,2.3,0,0,1,488.358,101.041Zm-.062-8.158c-3.933.807-6.215,1.51-7.726,2.388a3.746,3.746,0,0,0-1.826,3.406,2.927,2.927,0,0,0,3.231,3.125,8.533,8.533,0,0,0,6.321-3.16Z" transform="translate(-255.292 -11.665)" fill="#3f414c"/>
    <path id="Path_7" data-name="Path 7" d="M525.36,92.132V66.92h2.072V92.132Z" transform="translate(-285.625 -0.697)" fill="#3f414c"/>
    <path id="Path_8" data-name="Path 8" d="M544.725,92.132V66.92h6.04c8.533,0,12.079,4.424,12.079,12.4,0,8.568-4.319,12.817-12.852,12.817Zm5.584-1.9c7.023,0,10.359-3.441,10.359-10.921,0-7.128-3.16-10.5-9.586-10.5H546.9v21.42Z" transform="translate(-297.69 -0.697)" fill="#3f414c"/>
    <path id="Path_9" data-name="Path 9" d="M601.184,110.258h-.169a2,2,0,0,1-1.973-2h0a9.711,9.711,0,0,0,1.861.21c1.861,0,2.914-1.194,3.862-4.073l.316-.984L598.62,85.643h2.247l5.232,15.24h.07l4.986-15.24H613.3l-6.075,17.733C605.4,108.714,604.2,110.258,601.184,110.258Z" transform="translate(-331.269 -12.362)" fill="#3f414c"/>
    <path id="Path_10" data-name="Path 10" d="M656.569,103.1V90.354c0-2.81-.983-4.038-3.371-4.038-1.931,0-3.512.807-5.97,3.441V103.1h-2.072V84.946h0a2.072,2.072,0,0,1,2.072,2.072v.738c2-2.177,3.933-3.231,6.286-3.231a4.82,4.82,0,0,1,4,1.581,6.778,6.778,0,0,1,1.124,4.354V103.1Z" transform="translate(-360.263 -11.665)" fill="#3f414c"/>
    <path id="Path_11" data-name="Path 11" d="M701.5,101.041l-.027-.257a9.676,9.676,0,0,1-6.531,2.739c-3.3,0-5.127-1.931-5.127-4.846a5.333,5.333,0,0,1,3.02-4.951,38.868,38.868,0,0,1,8.6-2.528c.281-3.863-1.159-4.952-4.073-4.952-2.318,0-3.828.878-5.232,3.09l-1.545-.913a7.406,7.406,0,0,1,6.777-3.9c4.284,0,6.145,1.861,6.145,5.548v10.57l.281,2.458h0A2.3,2.3,0,0,1,701.5,101.041Zm-.062-8.158c-3.933.807-6.215,1.51-7.725,2.388a3.745,3.745,0,0,0-1.826,3.406,2.927,2.927,0,0,0,3.23,3.125,8.532,8.532,0,0,0,6.321-3.16Z" transform="translate(-388.085 -11.665)" fill="#3f414c"/>
    <path id="Path_12" data-name="Path 12" d="M759.873,103.1V90.038c0-2.985-1.545-3.722-3.09-3.722-1.826,0-3.582,1.054-5.513,3.371V103.1H749.2V90.354c0-2.634-1.019-4.038-3.02-4.038-1.861,0-3.9,1.3-5.654,3.511V103.1h-2.072V84.982h0a2.072,2.072,0,0,1,2.072,2.072v.7a8.094,8.094,0,0,1,5.829-3.231,4.369,4.369,0,0,1,4.67,3.3c2.107-2.353,3.687-3.3,6-3.3,3.441,0,4.916,2.107,4.916,5.724V103.1Z" transform="translate(-418.39 -11.665)" fill="#3f414c"/>
    <path id="Path_13" data-name="Path 13" d="M813.177,103.8V85.643h2.072V103.8Z" transform="translate(-464.945 -12.362)" fill="#3f414c"/>
    <path id="Path_14" data-name="Path 14" d="M843.26,98.852a7.79,7.79,0,0,1-7.269,4.67c-4.846,0-7.725-3.687-7.725-9.411,0-6,2.914-9.587,7.76-9.587a6.7,6.7,0,0,1,6.848,4.951h0a2.264,2.264,0,0,1-2.661-.9,4.59,4.59,0,0,0-4.151-2.263c-3.476,0-5.723,3.02-5.723,7.8,0,4.81,2.072,7.62,5.653,7.62a5.215,5.215,0,0,0,4.467-2.258,2.229,2.229,0,0,1,2.8-.621Z" transform="translate(-474.346 -11.665)" fill="#3f414c"/>
    <path id="Path_15" data-name="Path 15" d="M886.424,87.791a2.133,2.133,0,0,1-2.709-.182,4.856,4.856,0,0,0-3.577-1.328c-2.177,0-3.441,1.194-3.441,3.02,0,4.741,10.43,1.861,10.43,9.1,0,3.2-2.6,5.126-6.391,5.126a7.3,7.3,0,0,1-6.707-3.722h0a2.061,2.061,0,0,1,2.7.262,5.209,5.209,0,0,0,4.115,1.67c2.7,0,4.214-1.3,4.214-3.336,0-5.3-10.429-2.353-10.429-9.1,0-2.809,2.318-4.776,5.654-4.776a6.8,6.8,0,0,1,6.145,3.266Z" transform="translate(-502.858 -11.665)" fill="#3f414c"/>
    <g id="Group_1" data-name="Group 1" transform="translate(284.894 97.758)">
      <path id="Path_16" data-name="Path 16" d="M647.435,158.909v-7.046h-2.278v-.934h5.624v.934H648.5v7.046Z" transform="translate(-645.157 -150.796)" fill="#af0915"/>
      <path id="Path_17" data-name="Path 17" d="M671.087,158.909l-1.69-3.434h-1.834v3.434H666.5v-7.98h2.468c2.067,0,2.978.767,2.978,2.212a2.023,2.023,0,0,1-1.534,2.056l1.878,3.712ZM669,154.552c.689,0,1.878-.112,1.878-1.356,0-1.189-.967-1.334-1.823-1.334h-1.489v2.69Z" transform="translate(-658.452 -150.796)" fill="#af0915"/>
      <path id="Path_18" data-name="Path 18" d="M693.41,150.929h1.056v4.857c0,2.034-.9,3.256-3.067,3.256s-2.912-1.222-2.912-3.256v-4.857h1.067v5.046c0,1.456.533,2.123,1.856,2.123s2-.667,2-2.123Z" transform="translate(-672.153 -150.796)" fill="#af0915"/>
      <path id="Path_19" data-name="Path 19" d="M712.568,158.909v-7.98h1.067v7.046h3.479v.933Z" transform="translate(-687.156 -150.796)" fill="#af0915"/>
      <path id="Path_20" data-name="Path 20" d="M729.4,158.909V155.63l-2.479-4.7h1.167l1.823,3.668h.022l1.945-3.668h1.134l-2.545,4.7v3.278Z" transform="translate(-696.099 -150.796)" fill="#af0915"/>
      <path id="Path_21" data-name="Path 21" d="M758.638,158.909v-7.98H759.7v7.98Z" transform="translate(-715.86 -150.796)" fill="#af0915"/>
      <path id="Path_22" data-name="Path 22" d="M774.8,158.909l-3.923-6.7h-.022v6.7h-1.012v-7.98h1.512l3.456,6.046h.022v-6.046h1.011v7.98Z" transform="translate(-722.838 -150.796)" fill="#af0915"/>
      <path id="Path_23" data-name="Path 23" d="M794.2,158.909l-2.545-7.98h1.145l1.967,6.546h.022l2.09-6.546H798l-2.634,7.98Z" transform="translate(-736.427 -150.796)" fill="#af0915"/>
      <path id="Path_24" data-name="Path 24" d="M814.229,158.909v-7.98h4.812v.934H815.3v2.456h2.69v.911H815.3v2.745h3.924v.933Z" transform="translate(-750.495 -150.796)" fill="#af0915"/>
      <path id="Path_25" data-name="Path 25" d="M836.584,152.7a1.654,1.654,0,0,0-1.689-1.212c-.878,0-1.49.434-1.49,1.2,0,1.811,4.29.945,4.29,3.812,0,1.534-1.111,2.323-2.7,2.323a2.662,2.662,0,0,1-2.845-2.067l.989-.334a1.784,1.784,0,0,0,1.9,1.478c.967,0,1.634-.467,1.634-1.334,0-2-4.257-1.033-4.257-3.856a2.188,2.188,0,0,1,2.479-2.134,2.431,2.431,0,0,1,2.589,1.789Z" transform="translate(-761.659 -150.575)" fill="#af0915"/>
      <path id="Path_26" data-name="Path 26" d="M854.147,158.909v-7.046h-2.278v-.934h5.624v.934h-2.278v7.046Z" transform="translate(-773.946 -150.796)" fill="#af0915"/>
      <path id="Path_27" data-name="Path 27" d="M873.21,158.909v-7.98h4.812v.934h-3.746v2.456h2.69v.911h-2.69v2.745H878.2v.933Z" transform="translate(-787.242 -150.796)" fill="#af0915"/>
      <path id="Path_28" data-name="Path 28" d="M892.9,158.909v-7.98h2.145c2.667,0,3.845,1.356,3.845,3.9,0,2.7-1.389,4.078-4.056,4.078Zm2.034-.956c1.99,0,2.912-1.011,2.912-3.1,0-2.011-.878-2.967-2.7-2.967h-1.178v6.068Z" transform="translate(-799.509 -150.796)" fill="#af0915"/>
    </g>
    <path id="Path_29" data-name="Path 29" d="M904.508,69.065h.751q.6-.013.6-.491t-.6-.484h-.751Zm1.467-.035a.832.832,0,0,1-.477.226l.7.976h-.334l-.669-.956h-.683v.956h-.293V67.873h1.044a1.032,1.032,0,0,1,.652.184.688.688,0,0,1,.064.973m.158,1.68a1.713,1.713,0,0,0,.709-.67,2.112,2.112,0,0,0,0-2,1.716,1.716,0,0,0-.709-.669,2.52,2.52,0,0,0-2.13,0,1.684,1.684,0,0,0-.706.669,2.131,2.131,0,0,0,0,2,1.681,1.681,0,0,0,.706.67,2.524,2.524,0,0,0,2.13,0m.16-3.57a1.948,1.948,0,0,1,.818.758,2.387,2.387,0,0,1,0,2.282,1.946,1.946,0,0,1-.818.759,2.934,2.934,0,0,1-2.45,0,1.947,1.947,0,0,1-.818-.762,2.38,2.38,0,0,1,0-2.276,1.948,1.948,0,0,1,.818-.761,2.934,2.934,0,0,1,2.45,0" transform="translate(-520.743 -0.667)" fill="#3f414c"/>
    <g id="Group_2" data-name="Group 2" transform="translate(66.918 66.223)">
      <path id="Path_30" data-name="Path 30" d="M101.446,91.536a7.726,7.726,0,0,0-4.854-7.172,6.471,6.471,0,0,0-1.945-.5c-1.094-.074-2.164-.052-3.242-.14-.982-.08-1.962-.188-2.937-.329a31.979,31.979,0,0,1-5.061-1.114A15.651,15.651,0,0,1,79.632,80.6a6.619,6.619,0,0,1-2.245-2.221,4.1,4.1,0,0,1-.471-2.713c.022-.13.049-.259.082-.386.905-3.565,7.361-6.743,16.334-7.706l.07-.007q.411-.044.827-.081l.013,0c.408-.039.87-.081,1.233-.109v-.294c-16,.6-28.522,5.977-28.557,12.527.038,6.982,14.144,12.64,31.543,12.64h.06l.467,0,.328,0,.334-.005.451-.009c.166,0,.331-.009.5-.014s.358-.009.537-.015l.311-.011v-.647Z" transform="translate(-66.918 -67.016)" fill="#3f414c"/>
      <path id="Path_31" data-name="Path 31" d="M142.674,67.625a7.725,7.725,0,0,0,4.854,7.172,6.469,6.469,0,0,0,1.945.5c1.094.074,2.164.052,3.242.14.982.08,1.962.188,2.937.329a31.992,31.992,0,0,1,5.062,1.114,15.651,15.651,0,0,1,3.775,1.688,6.619,6.619,0,0,1,2.245,2.221,4.1,4.1,0,0,1,.47,2.713c-.022.13-.049.259-.082.386-.905,3.565-7.361,6.743-16.334,7.706l-.07.007q-.41.044-.827.081l-.013,0c-.408.039-.87.081-1.233.109v.294c16-.6,28.522-5.977,28.557-12.527-.038-6.982-14.143-12.64-31.542-12.64h-.06l-.467,0-.328,0-.334.005-.451.009c-.166,0-.331.009-.5.014s-.359.009-.537.015l-.311.011v.647Z" transform="translate(-114.117 -66.918)" fill="#af0915"/>
    </g>
    <circle id="Ellipse_1" data-name="Ellipse 1" cx="1.483" cy="1.483" r="1.483" transform="translate(347.784 66.205)" fill="#3f414c"/>
    <circle id="Ellipse_2" data-name="Ellipse 2" cx="0.721" cy="0.721" r="0.721" transform="translate(385.218 104.566)" fill="#af0915"/>
    <circle id="Ellipse_3" data-name="Ellipse 3" cx="1.483" cy="1.483" r="1.483" transform="translate(204.792 66.205)" fill="#3f414c"/>
  </g>
</svg>
